HIERARCHY
ROOT hip
{
	OFFSET 0.000000 0.000000 0.000000 
	CHANNELS 6 Xposition Yposition Zposition Xrotation Zrotation Yrotation
	JOINT abdomen
	{
		OFFSET 0.000000 3.402643 0.000000 
		CHANNELS 3 Xrotation Zrotation Yrotation
		JOINT chest
		{
			OFFSET 0.000000 8.438565 -0.680529 
			CHANNELS 3 Xrotation Zrotation Yrotation
			JOINT neck
			{
				OFFSET 0.000000 10.207942 -0.272212 
				CHANNELS 3 Xrotation Zrotation Yrotation
				JOINT head
				{
					OFFSET 0.000000 3.130431 0.000000 
					CHANNELS 3 Xrotation Zrotation Yrotation
					End Site
					{
						OFFSET 0.000000 3.130435 0.000000 
					}
				}
			}
			JOINT lCollar
			{
				OFFSET 3.470700 6.669187 -0.816635 
				CHANNELS 3 Yrotation Zrotation Xrotation
				JOINT lShldr
				{
					OFFSET 3.198488 0.000000 0.000000 
					CHANNELS 3 Zrotation Yrotation Xrotation
					JOINT lForeArm
					{
						OFFSET 10.139888 0.000000 0.000000 
						CHANNELS 3 Yrotation Zrotation Xrotation
						JOINT lHand
						{
							OFFSET 8.370511 0.000000 0.000000 
							CHANNELS 3 Zrotation Yrotation Xrotation
							End Site
							{
								OFFSET 4.083176 0.000000 0.000000 
							}
						}
					}
				}
			}
			JOINT rCollar
			{
				OFFSET -3.470700 6.669187 -0.816635 
				CHANNELS 3 Yrotation Zrotation Xrotation
				JOINT rShldr
				{
					OFFSET -3.198488 0.000000 0.000000 
					CHANNELS 3 Zrotation Yrotation Xrotation
					JOINT rForeArm
					{
						OFFSET -10.139888 0.000000 0.000000 
						CHANNELS 3 Yrotation Zrotation Xrotation
						JOINT rHand
						{
							OFFSET -8.370511 0.000000 0.000000 
							CHANNELS 3 Zrotation Yrotation Xrotation
							End Site
							{
								OFFSET -4.083176 0.000000 0.000000 
							}
						}
					}
				}
			}
		}
	}
	JOINT lThigh
	{
		OFFSET 5.308129 -1.633274 1.361059 
		CHANNELS 3 Xrotation Zrotation Yrotation
		JOINT lShin
		{
			OFFSET -2.041588 -20.007561 0.000000 
			CHANNELS 3 Xrotation Zrotation Yrotation
			JOINT lFoot
			{
				OFFSET 0.000000 -19.190928 -1.224953 
				CHANNELS 3 Xrotation Yrotation Zrotation
				End Site
				{
					OFFSET 0.000000 -2.449906 4.627600 
				}
			}
		}
	}
	JOINT rThigh
	{
		OFFSET -5.308129 -1.633274 1.361059 
		CHANNELS 3 Xrotation Zrotation Yrotation
		JOINT rShin
		{
			OFFSET 2.041588 -20.007561 0.000000 
			CHANNELS 3 Xrotation Zrotation Yrotation
			JOINT rFoot
			{
				OFFSET 0.000000 -19.190928 -1.224953 
				CHANNELS 3 Xrotation Yrotation Zrotation
				End Site
				{
					OFFSET 0.000000 -2.449906 4.627600 
				}
			}
		}
	}
}
MOTION
Frames: 19
Frame Time: 0.033333
-1.025762 42.207706 -1.366576 16.506239 -3.364070 6.915836 0.000000 0.000000 0.000000 -4.438477 0.872905 6.700075 10.649604 -15.729103 -1.208597 -13.995472 2.609511 45.206360 -11.432411 11.271549 24.994169 -87.909653 -14.895521 -2.679945 -26.367241 1.377183 57.923698 -7.448345 -3.931554 -59.474815 1.284638 -20.274771 24.888874 71.491638 20.531370 69.171173 35.849079 -19.175268 4.868700 33.504681 -11.751648 -80.073235 -36.148197 9.958232 16.526188 77.492409 13.281835 -0.166750 -42.881218 -4.978610 -17.934622 -34.907387 -7.049982 0.419968 72.225563 -2.343728 5.180684 -34.669411 -3.375891 14.743682 
-0.894388 43.209602 -1.094282 16.836502 -2.860596 6.804936 0.000000 0.000000 0.000000 -5.900042 0.407429 6.611507 13.303029 -14.391948 -1.110895 -13.679072 1.484944 39.488693 -12.193810 10.576307 24.991745 -87.350769 -13.503187 -2.976546 -26.346640 1.388379 57.184872 -8.545843 -4.470166 -59.199245 -0.057919 -19.126265 24.434454 70.484711 19.223637 68.874832 36.818817 -18.687635 5.124163 33.863831 -12.410414 -80.129913 -33.050533 9.156103 16.829046 72.214172 12.199828 -0.259685 -40.206242 -6.553483 -15.162247 -32.135696 -7.509193 0.156725 67.212448 -2.528988 4.668886 -30.634094 -2.182809 16.498989 
-0.761673 45.213497 -0.693482 18.013165 -3.565298 5.860718 0.000000 0.000000 0.000000 -9.043661 1.376831 6.847707 16.934013 -11.912477 -0.950084 -12.719814 0.262227 29.980839 -12.684424 10.016250 24.994354 -86.924408 -11.438330 -3.221646 -27.376228 1.336594 59.137470 -10.722824 -6.056285 -58.442753 -1.538712 -17.371058 23.994114 67.822968 17.460819 67.714523 38.905777 -18.429287 8.088871 34.593277 -11.042253 -80.285767 -28.655849 9.370259 17.639818 62.272697 10.834157 -0.284183 -31.820553 -10.159615 -10.166179 -28.377682 -6.493820 0.261332 57.680653 -2.361460 3.834869 -19.481699 0.279855 18.469479 
-0.653103 47.096027 -0.378321 19.048567 -4.115541 4.944123 0.000000 0.000000 0.000000 -11.606645 2.180825 7.017020 19.816940 -9.159381 -0.752932 -11.803560 -0.767387 20.695213 -13.229486 9.505030 24.998089 -86.317299 -9.872794 -3.559568 -28.445969 1.228163 61.089916 -12.474453 -7.726050 -57.653778 -2.566961 -15.717342 23.781275 65.231178 16.205551 66.468430 40.567116 -18.176651 10.971392 35.038982 -9.460892 -80.369812 -24.585232 9.478372 18.305109 52.158642 9.242523 -0.240106 -22.606375 -13.932448 -5.892905 -25.287683 -5.750675 0.337199 48.738125 -2.087336 3.058454 -9.031297 3.174378 18.416868 
-0.567254 48.781223 -0.170642 19.772032 -4.334231 4.171855 0.000000 0.000000 0.000000 -13.291239 2.587471 7.097126 21.838879 -6.308295 -0.560781 -11.329400 -1.901412 11.930452 -13.772558 8.872977 24.997250 -85.283020 -8.914008 -4.114331 -29.559792 1.067010 63.203545 -13.748886 -9.501823 -56.837955 -2.913507 -14.050070 23.807022 62.730877 15.545648 65.150566 41.526268 -18.109888 13.539489 35.072861 -7.685353 -80.367622 -21.051460 9.362155 18.721350 42.731499 7.711822 -0.105166 -13.016168 -17.505198 -2.919734 -23.135523 -5.515692 0.333467 41.483986 -1.542981 2.448664 0.064914 6.221949 16.559992 
-0.473929 50.258392 -0.085659 20.650112 -3.906858 3.924866 0.000000 0.000000 0.000000 -14.608639 2.084117 6.967851 23.269796 -3.076120 -0.332601 -11.870186 -2.094826 3.869597 -14.638241 8.499768 24.996126 -84.135933 -8.619805 -4.720681 -30.098137 0.677572 63.099159 -14.328475 -10.135163 -56.532722 -3.093675 -12.522628 23.864897 60.662914 15.203868 64.029091 41.876648 -18.150810 14.710582 34.975201 -6.914471 -80.372833 -19.241379 8.548169 18.694550 35.173996 6.597676 0.043451 -4.259292 -19.294628 -5.373566 -22.623432 -6.502736 0.004057 36.810181 -0.464823 2.211350 5.757601 8.700146 14.014153 
-0.401033 51.693768 -0.066468 21.781893 -3.576617 3.678725 0.000000 0.000000 0.000000 -16.005648 1.551421 6.828945 24.276693 0.478515 -0.078122 -12.657961 -1.821176 -4.240481 -15.663411 8.287952 24.993328 -82.927063 -8.640092 -5.358703 -30.268492 0.234618 61.655720 -15.194806 -10.098630 -56.355839 -3.350863 -11.129749 23.911619 58.969509 15.020376 63.094994 41.705849 -18.312035 15.239882 34.875397 -6.329916 -80.392738 -18.840494 7.981476 18.559254 29.704243 5.857652 0.203043 1.689404 -20.265982 -9.376918 -23.147285 -7.214730 -0.184951 33.600311 0.429587 2.101972 8.997380 9.807759 13.576013 
-0.365479 53.097855 -0.129658 23.281921 -3.529249 3.316285 0.000000 0.000000 0.000000 -17.519127 1.163826 6.720333 24.772554 4.443328 0.215711 -13.965111 -0.819153 -12.745469 -16.930023 8.273012 24.991631 -81.622040 -9.039738 -6.033014 -29.946503 -0.320205 58.417774 -16.660679 -9.072786 -56.390862 -3.752975 -9.911654 23.936749 57.808632 15.141891 62.419876 40.751308 -18.662048 14.994098 34.849247 -5.834059 -80.452087 -20.368128 7.985690 18.340946 27.552921 5.613051 0.283675 2.865557 -20.768463 -14.086804 -25.035172 -7.293679 -0.150943 32.406948 0.736862 2.082900 8.621586 9.059049 16.891293 
-0.321998 53.878254 -0.081476 22.428164 -2.973122 3.451737 0.000000 0.000000 0.000000 -16.396849 0.252252 6.543035 24.100746 7.490013 0.443341 -13.750285 -0.942624 -18.860077 -18.078926 8.420327 24.998535 -80.840668 -9.590034 -6.413839 -29.775589 -0.382660 56.716484 -15.820427 -8.136125 -56.926746 -4.350009 -9.298090 23.883427 57.273041 15.293484 62.091438 40.684387 -19.057989 14.587030 34.910660 -6.886016 -80.539635 -19.373381 7.459777 18.305498 27.727163 5.070993 0.103336 0.156430 -18.914371 -10.342852 -23.928944 -7.858942 -0.378323 31.405514 1.049383 2.068207 8.563838 9.034616 15.311066 
-0.336979 54.435860 -0.037370 21.497604 -3.002877 3.285436 0.000000 0.000000 0.000000 -15.146484 0.000000 6.503907 23.032963 10.097030 0.645479 -12.978789 -1.159371 -24.048208 -18.995686 8.994989 24.994024 -80.617546 -10.430120 -6.502472 -29.508900 -0.263650 55.570496 -14.717341 -7.571615 -57.364765 -4.974930 -9.166653 23.783659 57.213898 15.599293 62.001328 40.857403 -19.449383 14.608040 35.006947 -7.863011 -80.588821 -18.579529 7.896411 18.541008 28.881052 4.465760 -0.043753 -2.894846 -17.410862 -4.631993 -22.817833 -7.479136 -0.281897 30.432676 1.025168 1.935574 8.882902 9.216685 13.661392 
-0.483723 54.757404 -0.043533 21.362898 -4.469419 2.184046 0.000000 0.000000 0.000000 -14.665885 1.406005 6.818657 21.799583 12.039851 0.810281 -11.827253 -1.183526 -27.799435 -19.323923 10.333482 24.991558 -81.351730 -11.841909 -6.083484 -29.008123 0.062593 55.092896 -14.035159 -7.858972 -57.452511 -5.511368 -9.848338 23.598265 58.004391 16.175470 62.351463 41.160744 -19.795542 15.588453 35.191364 -8.016121 -80.617920 -19.166798 10.709352 19.420536 31.228075 3.800395 -0.322311 -5.021646 -16.677464 -0.816570 -22.874443 -4.793918 0.521122 29.471085 0.165837 1.678696 9.820019 9.670667 13.965760 
-0.484976 54.914234 -0.065948 21.414038 -4.323628 1.968346 0.000000 0.000000 0.000000 -14.267328 1.076496 6.739655 20.693529 13.757965 0.947369 -10.601938 -1.334089 -30.780880 -19.870213 11.218713 24.997137 -81.789375 -13.287213 -5.814929 -28.576744 0.565940 55.504135 -13.869747 -9.232981 -57.025726 -6.057535 -10.001613 23.473125 58.286854 16.704767 62.406872 41.255367 -19.838074 16.368500 35.266129 -7.806516 -80.619934 -20.358381 10.953824 19.342905 33.613922 4.229886 -0.387961 -6.241678 -15.231882 0.344502 -23.222311 -4.628769 0.573767 28.808144 0.014748 1.605499 11.051311 11.200255 14.341835 
-0.462103 54.951523 -0.079931 21.439865 -4.011801 1.751961 0.000000 0.000000 0.000000 -13.878057 0.659581 6.660611 19.769548 15.134237 1.063762 -9.545846 -1.488254 -33.147514 -20.364475 11.754649 24.993450 -81.977669 -14.435534 -5.679984 -28.477160 1.076699 56.751518 -13.652569 -10.733351 -56.547176 -6.421571 -9.887442 23.424414 58.324787 17.130665 62.356438 41.208038 -19.900850 17.074099 35.330902 -7.417123 -80.619766 -21.474182 10.907758 19.191025 35.763149 4.762591 -0.384503 -7.190414 -13.914373 0.575010 -23.571486 -4.726138 0.576655 28.245087 -0.000102 1.501570 12.379156 12.709968 14.374779 
-0.488415 54.771568 -0.055725 21.264664 -4.530807 0.802907 0.000000 0.000000 0.000000 -13.440051 1.444732 6.838186 19.295738 15.680765 1.116057 -9.049177 -1.705913 -34.128723 -20.475126 11.564651 24.993305 -81.679520 -14.611740 -5.843521 -29.348646 1.461572 59.548286 -12.896920 -11.742319 -56.365147 -6.240099 -9.392854 23.521900 58.075191 17.293549 62.181126 40.898666 -20.206594 17.798227 35.512722 -6.803544 -80.642197 -21.868896 12.180327 19.593054 37.242256 4.890095 -0.445561 -8.183505 -13.812425 0.264741 -23.626463 -3.465964 0.944886 27.717316 -0.238883 1.416467 13.711346 13.270557 13.208650 
-0.444334 54.519775 0.086336 19.190807 -4.257774 0.244192 0.000000 0.000000 0.000000 -11.077620 1.512512 6.867728 19.341131 15.856462 1.128117 -9.195563 -2.120830 -34.353226 -20.652481 10.210816 24.991430 -80.364410 -14.133397 -6.511634 -30.217402 1.700726 61.793610 -12.411606 -12.528492 -56.213329 -5.686174 -8.007102 23.782169 56.956573 17.164171 61.586403 40.405697 -20.624067 18.240709 35.534439 -6.312233 -80.644203 -19.401945 12.194305 19.917027 37.092930 4.903211 -0.441934 -8.591660 -13.461465 -0.331122 -21.088221 -3.300095 0.898288 26.859331 -0.336513 1.314037 15.010193 13.808442 12.543106 
-0.370600 54.104527 0.219097 17.121944 -3.681619 -0.196164 0.000000 0.000000 0.000000 -8.717644 1.250859 6.818185 19.476852 15.807643 1.128113 -9.620149 -2.663122 -34.300060 -20.828732 8.811310 24.993280 -79.079506 -13.589605 -7.187776 -30.977903 1.844067 63.563885 -12.001262 -13.068961 -56.137203 -5.055572 -6.531465 24.042578 55.705078 16.866922 60.947849 40.003735 -21.084347 18.581099 35.486942 -5.938246 -80.637817 -16.939447 11.625231 20.012028 36.675217 4.948586 -0.391247 -8.671083 -12.986858 -1.246192 -18.694672 -3.622150 0.716473 26.500242 -0.293017 1.271328 16.143080 14.029271 11.678480 
-0.277685 53.106544 0.228067 17.092476 -3.017291 -0.792489 0.000000 0.000000 0.000000 -8.402012 0.960099 6.749058 19.382101 15.387952 1.094614 -10.175312 -3.471738 -34.281189 -20.871305 8.521762 24.991730 -79.202873 -13.519671 -7.132320 -31.201647 1.677593 63.334785 -11.437562 -12.592818 -56.456543 -4.569522 -6.019341 24.159967 55.275078 16.389668 60.795700 40.231804 -21.499525 18.977749 35.428883 -5.927025 -80.646767 -17.595152 10.943996 19.699564 37.338264 5.153471 -0.399843 -8.359777 -12.321678 -3.014339 -19.516617 -4.169042 0.566870 28.254547 -0.107403 1.477039 16.651554 13.476136 8.951692 
-0.155279 51.894966 0.163963 18.141657 -2.060229 -1.006613 0.000000 0.000000 0.000000 -9.235020 0.281325 6.601674 18.863644 14.880419 1.051781 -10.415464 -4.086782 -34.436142 -20.877390 9.503680 24.989088 -80.656342 -14.107074 -6.371395 -31.205812 1.496168 62.438496 -10.966886 -11.742490 -56.864002 -4.593594 -6.818571 24.074150 55.999760 16.207888 61.223591 40.776791 -21.665749 19.526390 35.376427 -5.944014 -80.633133 -20.253191 9.755326 18.969929 39.654930 5.684272 -0.404973 -8.973238 -11.570455 -4.225063 -22.320206 -5.311359 0.325656 32.080109 0.248625 1.966011 14.928055 12.544320 7.245231 
-0.021636 50.551716 0.038163 19.852688 -1.034987 -1.035340 0.000000 0.000000 0.000000 -10.678637 -0.475500 6.435729 18.120478 14.324045 1.009018 -10.565239 -4.553919 -34.607822 -20.848814 11.039233 24.995895 -82.722557 -14.984343 -5.297632 -31.000456 1.273243 61.102249 -10.520624 -10.717352 -57.296108 -4.834657 -8.241511 23.897615 57.254864 16.232027 61.918648 41.446842 -21.655397 20.146015 35.319023 -5.932142 -80.602509 -24.244551 8.464301 18.012348 43.193928 6.297714 -0.456951 -10.381481 -10.653616 -5.123319 -26.407288 -6.629074 0.161451 37.193436 0.595613 2.482683 11.692132 11.388151 6.334593 
